<svg viewBox="0 0 21 21" xmlns="http://www.w3.org/2000/svg"><path d="m8.499 5.5-2 .003a1 1 0 0 0-1 1V8.5a1 1 0 0 0 .884.993l.118.007 2-.003a1 1 0 0 0 .999-1V6.501a1 1 0 0 0-.884-.994zm6 0-2 .003a1 1 0 0 0-1 1V8.5a1 1 0 0 0 .884.993l.118.007 2-.003a1 1 0 0 0 .999-1V6.501a1 1 0 0 0-.884-.994zm-6 6-2 .003a1 1 0 0 0-1 1V14.5a1 1 0 0 0 .884.993l.118.007 2-.003a1 1 0 0 0 .999-1v-1.996a1 1 0 0 0-.884-.994zm6 0-2 .003a1 1 0 0 0-1 1V14.5a1 1 0 0 0 .884.993l.118.007 2-.003a1 1 0 0 0 .999-1v-1.996a1 1 0 0 0-.884-.994z" fill="none" stroke="#ffffff" stroke-linecap="round" stroke-linejoin="round" class="stroke-000000"></path></svg>